
                            <svg height="60" viewBox="0 0 60 60" width="60" xmlns="http://www.w3.org/2000/svg"><rect fill="#fff" height="60" rx="10" width="60"></rect><circle cx="30" cy="30" fill="#aaadbf" r="22"></circle><path d="m30 53.5a23.5 23.5 0 1 1 23.5-23.5 23.527 23.527 0 0 1 -23.5 23.5zm0-44a20.5 20.5 0 1 0 20.5 20.5 20.523 20.523 0 0 0 -20.5-20.5z" fill="#7f778c"></path><path d="m32 20 8 8-14 12-4-4z" fill="#f1f3f4"></path><path d="m26 41.5a1.5 1.5 0 0 1 -1.061-.439l-4-4a1.5 1.5 0 0 1 -.211-1.856l10-16a1.5 1.5 0 0 1 2.333-.266l8 8a1.5 1.5 0 0 1 -.085 2.2l-14 12a1.493 1.493 0 0 1 -.976.361zm-2.1-5.717 2.175 2.174 11.719-10.042-5.522-5.521z" fill="#f1f3f4"></path><circle cx="24" cy="38" fill="#7f778c" r="6"></circle><path d="m24 45.5a7.5 7.5 0 1 1 7.5-7.5 7.508 7.508 0 0 1 -7.5 7.5zm0-12a4.5 4.5 0 1 0 4.5 4.5 4.505 4.505 0 0 0 -4.5-4.5z" fill="#f1f3f4"></path><circle cx="36" cy="24" fill="#7f778c" r="8"></circle><g fill="#f1f3f4"><path d="m36 33.5a9.5 9.5 0 1 1 9.5-9.5 9.511 9.511 0 0 1 -9.5 9.5zm0-16a6.5 6.5 0 1 0 6.5 6.5 6.508 6.508 0 0 0 -6.5-6.5z"></path><circle cx="36" cy="24" r="4"></circle><path d="m25.535 36.026-17.715-13.778a23.28 23.28 0 0 0 -1.2 5.4l15.845 12.326a2.5 2.5 0 0 0 3.07-3.948z"></path></g><path d="m8 31.5a1.5 1.5 0 0 1 -1.5-1.5 23.527 23.527 0 0 1 23.5-23.5 1.5 1.5 0 0 1 0 3 20.523 20.523 0 0 0 -20.5 20.5 1.5 1.5 0 0 1 -1.5 1.5z" fill="#bf95bc"></path></svg>                            